<svg xmlns="http://www.w3.org/2000/svg" version="1.1" xmlns:xlink="http://www.w3.org/1999/xlink" width="100" height="100" x="0" y="0" viewBox="0 0 512 512" style="enable-background:new 0 0 512 512" xml:space="preserve" class=""><g transform="matrix(0.24000000000000007,0,0,0.24000000000000007,99.54691894531263,194.55999999999995)"><path d="M81.3 126.1h21.4v21.4c0 7.8 6.3 14.1 14.1 14.1s14.1-6.3 14.1-14.1v-21.4h21.4c7.8 0 14.1-6.3 14.1-14.1s-6.3-14.1-14.1-14.1H131V76.4c0-7.8-6.3-14.1-14.1-14.1s-14.1 6.3-14.1 14.1v21.4H81.3c-7.8 0-14.1 6.3-14.1 14.1s6.3 14.2 14.1 14.2zM79.6 239.4h201.8c7.8 0 14.1-6.3 14.1-14.1s-6.3-14.1-14.1-14.1H79.6c-7.8 0-14.1 6.3-14.1 14.1s6.3 14.1 14.1 14.1zM79.6 334.2h125.8c7.8 0 14.1-6.3 14.1-14.1s-6.3-14.1-14.1-14.1H79.6c-7.8 0-14.1 6.3-14.1 14.1s6.3 14.1 14.1 14.1zM299.5 400.7H79.6c-7.8 0-14.1 6.3-14.1 14.1s6.3 14.1 14.1 14.1h219.9c7.8 0 14.1-6.3 14.1-14.1s-6.3-14.1-14.1-14.1zM198.5 144.7h101c7.8 0 14.1-6.3 14.1-14.1s-6.3-14.1-14.1-14.1h-101c-7.8 0-14.1 6.3-14.1 14.1s6.3 14.1 14.1 14.1z" fill="#0a76d8" opacity="1" data-original="#000000" class=""></path><path d="M496.6 126.4c-18.8-20.6-48.9-18.4-66.5-.8L377 177.5V44.4C377 21 358.1 2 334.7 2H44.3C21 2 2 21 2 44.4v423.3C2 491 21 510 44.3 510h290.4c23.3 0 42.3-19 42.3-42.4V309l118.8-116.1c18.6-18.1 18.9-48 .8-66.5zM348.8 467.6c0 7.8-6.3 14.1-14.1 14.1H44.3c-7.8 0-14.1-6.3-14.1-14.1V44.4c0-7.8 6.3-14.1 14.1-14.1h290.4c7.8 0 14.1 6.3 14.1 14.1v160.7l-98.3 96.1c-2.7 2.6-4.2 6.2-4.3 9.9l-.6 46.6c-.1 7.8 6.2 14.2 13.9 14.3l46.5.5h.2c3.7 0 7.2-1.4 9.9-4l32.6-31.9v131zm-48.2-123.4-26.6-.3.3-26.6 148.2-144.8 26.3 26.9zm175.5-171.5-7.1 6.9-26.3-26.9 7.1-7c7.2-7 19.5-6.9 26.6.3 7.3 7.5 7.1 19.4-.3 26.7z" fill="#0a76d8" opacity="1" data-original="#000000" class=""></path></g></svg>